<?xml version="1.0" encoding="UTF-8"?>
<svg id="Layer_2" data-name="Layer 2" xmlns="http://www.w3.org/2000/svg" viewBox="0 0 6494.29 1267.71">
  <defs>
    <style>
      .cls-1 {
        fill: #fff;
        stroke-width: 0px;
      }
    </style>
  </defs>
  <g id="Layer_1-2" data-name="Layer 1">
    <g>
      <path class="cls-1" d="m1251.27.06c-78.35.62-154.97,4.78-229.26,12.16-51.03,70.28-177.27,310.18-33.89,619.41,102.9,221.92,343.78,366.26,542.81,442.51-150.51-77.07-295.19-194.01-382.85-371.39-64.51-109.47-97.74-310.8-11.73-519.96C1168.9,103.66,1211.22,43.86,1251.27.06Z"/>
      <path class="cls-1" d="m761.37,665.84c149.87,323.23,592.47,481.89,772.12,505.26-220.74-60.03-499.45-189.52-637.24-468.35-64.51-109.47-109.14-308.2-11.73-519.96,32.13-69.85,70.21-124.96,106.47-167.28-67.3,7.56-132.58,17.78-195.37,30.43-50.79,69.64-177.97,309.94-34.25,619.91Z"/>
      <path class="cls-1" d="m669.5,736.95c-64.51-109.47-97.74-310.8-11.73-519.96,27.78-67.55,62.69-121.01,97.23-162.47C310.15,153.27,0,375.5,0,633.84c0,350.08,569.51,633.87,1272.03,633.87,118.83,0,233.84-8.13,342.94-23.32-119.44-.92-698.08-30.43-945.47-507.44Z"/>
      <path class="cls-1" d="m1283.33,0c-41.54,49.3-196.77,300.78-43.37,631.63,146.77,316.54,574.29,475.26,760.64,503.64,20.79-3.34,31.36-6.39,31.36-6.39l-16.38,8.46c4.2.52,8.26.96,12.15,1.32,3.74.35,7.42.67,11.08.98,306.93-115.72,505.26-299.21,505.26-505.79C2544.06,285.64,1980.65,3.02,1283.33,0Zm557.59,829.26c-45.28,31.72-107.74,47.58-187.4,47.58-89.46,0-156.96-19.85-202.5-59.56-45.55-39.71-68.32-98.45-68.32-176.25s22.77-136.85,68.32-176.55c45.54-39.71,113.05-59.56,202.5-59.56,83.47,0,148.07,17.23,193.8,51.68,45.73,34.45,69.95,83.91,72.67,148.36h-178.28c-2.54-27.68-11.34-48.8-26.4-63.35-15.06-14.55-35.66-21.82-61.79-21.82-33.39,0-58.93,10.41-76.62,31.22-17.69,20.81-26.54,50.82-26.54,90.02s8.85,68.8,26.54,89.41c17.69,20.61,43.23,30.92,76.62,30.92,24.13,0,43.59-6.11,58.38-18.34,14.79-12.22,24.54-30.36,29.26-54.41h179.91c-8.17,62.04-34.89,108.92-80.16,140.64Zm554.85,10.91c-43.92,25.66-113.14,38.49-207.68,38.49-75.12,0-132.78-12.93-172.97-38.8-40.19-25.86-60.56-62.94-61.11-111.23l188.9-.3c1.45,12.12,8.25,21.47,20.41,28.04,12.15,6.57,28.76,9.85,49.81,9.85s36.79-2.68,47.22-8.03c10.43-5.35,15.65-13.38,15.65-24.1,0-9.5-4.54-17.12-13.61-22.88-9.08-5.76-23.05-9.95-41.92-12.58l-116.5-16.06c-48.27-6.46-84.61-20.91-109.01-43.34-24.41-22.43-36.61-52.44-36.61-90.02,0-50.11,18.46-86.69,55.39-109.72,36.92-23.04,95.76-34.55,176.51-34.55s146.16,11.52,186.99,34.55c40.83,23.03,62.87,58.9,66.14,107.6h-181.27c-2-14.14-9.62-24.8-22.86-31.98-13.25-7.17-31.85-10.76-55.8-10.76-17.42,0-31.12,2.68-41.1,8.03-9.98,5.36-14.97,12.58-14.97,21.67,0,8.49,3.85,14.96,11.57,19.4,7.71,4.45,23.72,8.59,48.04,12.43l142.08,22.43c44.46,7.08,77.66,21.47,99.62,43.19,21.95,21.72,32.93,50.97,32.93,87.75,0,54.96-21.96,95.28-65.87,120.93Z"/>
    </g>
    <g>
      <path class="cls-1" d="m2606.92,860.47v-455.25h150.88v455.25h-150.88Z"/>
      <path class="cls-1" d="m2834.55,860.47v-276.97c0-21.5-4.08-41.19-4.08-41.19h142.4s9.08,7.31,9.08,33.01c6.87-6.87,41.58-23.16,63.03-29.54,21.45-6.38,44.54-9.57,69.27-9.57,48.69,0,84.3,11.84,106.81,35.5,22.51,23.67,33.77,61.21,33.77,112.62v176.14h-148.4v-149.51c0-23.67-3.96-39.99-11.88-48.96-7.93-8.97-21.74-13.45-41.45-13.45-21.84,0-38.98,4.99-51.45,14.98-12.46,9.99-18.7,23.76-18.7,41.33v155.61h-148.4Z"/>
      <path class="cls-1" d="m3367.08,860.47v-244.07h-64.01v-74.32h64.01v-54.37c0-32.54,9.05-55.66,27.15-69.35,18.09-13.68,48.84-20.53,92.24-20.53,8.71,0,19.56.23,32.55.69,12.98.46,61.03,5.25,84.15,6.36v70.89h-61.27c-10.8,0-18.38,1.85-22.74,5.55-4.36,3.7-6.54,9.99-6.54,18.86v41.88h90.55v74.32h-87.99v244.07h-148.1Z"/>
      <path class="cls-1" d="m3622.6,701.54c0-53.99,19.99-95.83,59.98-125.51,39.98-29.68,96.46-44.52,169.42-44.52s129.57,14.8,169.28,44.38c39.7,29.59,59.55,71.47,59.55,125.65s-19.85,95.79-59.55,125.38c-39.7,29.59-96.13,44.38-169.28,44.38s-129.44-14.79-169.42-44.38c-39.99-29.58-59.98-71.38-59.98-125.38Zm144.7,0c0,29.58,7.59,53.15,22.79,70.69,15.19,17.55,35.64,26.32,61.35,26.32s46.15-8.77,61.35-26.32c15.19-17.54,22.79-41.11,22.79-70.69s-7.6-53.45-22.79-70.88c-15.19-17.42-35.64-26.13-61.35-26.13s-46.16,8.71-61.35,26.13c-15.19,17.43-22.79,41.05-22.79,70.88Z"/>
      <path class="cls-1" d="m5109.3,860.47v-284.13l-4-34.02h142.4c7.47,18.97,6,44.68,6,44.68,14.34-15.22,54.74-52.78,125.07-52.78,66.5,0,99.3,39.36,112,59.14,21.41-19.6,44.3-32.99,67.37-43.27,31.13-13.87,120.4-35.65,179.37,21.64,22.9,22.24,32.12,61.21,32.12,112.62v176.14h-147.83v-179.51c0-103.32-111.41-75.31-111.41-6.1v185.61h-141.28l-3-197.51c0-70.59-112.41-75.97-112.41,38.57v158.94h-144.4Z"/>
      <path class="cls-1" d="m4421.51,721.32c-2.59,20.56-9.42,37.58-20.54,51.04-14.49,17.55-34,26.32-58.51,26.32s-44.03-8.77-58.51-26.32c-14.49-17.54-21.73-41.11-21.73-70.69s7.24-53.45,21.73-70.88c14.49-17.42,33.99-26.13,58.51-26.13s44.02,8.71,58.51,26.13c8.63,10.38,14.66,22.97,18.15,37.74h139.52c-6.38-38.43-24.44-69.27-54.19-92.52-37.87-29.58-91.69-44.38-161.46-44.38s-123.46,14.84-161.6,44.52c-38.14,29.68-57.21,71.52-57.21,125.51s19.07,95.79,57.21,125.38c38.14,29.59,92,44.38,161.6,44.38s123.59-14.79,161.46-44.38c33.14-25.89,51.78-61.14,55.92-105.73h-138.86Z"/>
      <path class="cls-1" d="m4595.72,701.67c0-53.99,19.99-95.83,59.98-125.51,39.98-29.68,96.46-44.52,169.42-44.52s129.57,14.8,169.28,44.38c39.7,29.59,59.55,71.47,59.55,125.65s-19.85,95.79-59.55,125.38c-39.7,29.59-96.13,44.38-169.28,44.38s-129.44-14.79-169.42-44.38c-39.99-29.58-59.98-71.38-59.98-125.38Zm144.7,0c0,29.58,7.59,53.15,22.79,70.69,15.19,17.55,35.64,26.32,61.35,26.32s46.15-8.77,61.35-26.32c15.19-17.54,22.79-41.11,22.79-70.69s-7.6-53.45-22.79-70.88c-15.19-17.42-35.64-26.13-61.35-26.13s-46.16,8.71-61.35,26.13c-15.19,17.43-22.79,41.05-22.79,70.88Z"/>
      <path class="cls-1" d="m5833.96,860.47v-284.13l-4-34.02h142.4c7.47,18.97,6,44.68,6,44.68,14.34-15.22,54.74-52.78,125.07-52.78,66.5,0,99.3,39.36,112,59.14,21.41-19.6,44.3-32.99,67.37-43.27,31.13-13.87,120.4-35.65,179.37,21.64,22.9,22.24,32.12,61.21,32.12,112.62v176.14h-147.83v-179.51c0-103.32-111.41-75.31-111.41-6.1v185.61h-141.28l-3-197.51c0-70.59-112.41-75.97-112.41,38.57v158.94h-144.4Z"/>
    </g>
  </g>
</svg>